<svg width="555" height="349" viewBox="0 0 555 349" fill="none" xmlns="http://www.w3.org/2000/svg">
<mask id="path-1-outside-1_74_96" maskUnits="userSpaceOnUse" x="-0.535156" y="0.320312" width="555" height="349" fill="black">
<rect fill="white" x="-0.535156" y="0.320312" width="555" height="349"/>
<path d="M122.754 312.553L116.455 348.002H30.3223L36.4746 312.553H122.754ZM80.2734 134.721L43.3594 348.002H1.46484L38.2324 134.721H80.2734Z"/>
<path d="M221.338 134.721L184.277 348.002H142.529L179.59 134.721H221.338Z"/>
<path d="M401.367 134.721L364.307 348.002H323.438L285.938 205.912L261.328 348.002H219.434L256.201 134.721H297.217L335.01 276.957L359.619 134.721H401.367Z"/>
<path d="M522.656 312.553L516.357 348.002H426.416L432.422 312.553H522.656ZM476.367 134.721L439.453 348.002H397.559L434.326 134.721H476.367ZM526.465 221.146L520.459 255.57H442.383L448.242 221.146H526.465ZM553.125 134.721L546.826 170.316H457.031L463.33 134.721H553.125Z"/>
<path d="M54.4897 126.002H32.3579L32.5269 104.292H54.4897C59.6144 104.292 63.6691 103.307 66.6538 101.336C69.6948 99.3649 71.863 96.1549 73.1582 91.7061C74.5098 87.2572 75.1855 81.3441 75.1855 73.9668V54.9604C75.1855 49.4416 74.8195 44.7674 74.0874 40.938C73.3553 37.0522 72.1727 33.9549 70.5396 31.646C68.9627 29.2808 66.8509 27.5632 64.2041 26.4932C61.5573 25.3669 58.291 24.8037 54.4053 24.8037H31.9355V3.00977H54.4053C61.5573 3.00977 68.0617 4.19238 73.9185 6.55762C79.7752 8.86654 84.8154 12.2736 89.0391 16.7788C93.2627 21.2277 96.5008 26.6621 98.7534 33.082C101.006 39.502 102.132 46.8511 102.132 55.1294V73.9668C102.132 82.1888 101.006 89.5379 98.7534 96.0142C96.5008 102.434 93.2627 107.868 89.0391 112.317C84.8154 116.766 79.7752 120.173 73.9185 122.539C68.118 124.847 61.6418 126.002 54.4897 126.002ZM47.9854 3.00977V126.002H21.123V3.00977H47.9854Z"/>
<path d="M118.689 3.00977H159.489C167.711 3.00977 174.779 4.41764 180.692 7.2334C186.605 10.0492 191.138 14.2165 194.292 19.7354C197.502 25.2542 199.107 32.0684 199.107 40.1777C199.107 47.0482 198.206 52.8486 196.404 57.5791C194.602 62.2533 192.068 66.139 188.801 69.2363C185.535 72.3337 181.677 74.8397 177.229 76.7544L168.697 81.7383H136.175L136.09 60.0288H158.813C161.854 60.0288 164.361 59.3249 166.332 57.917C168.303 56.5091 169.767 54.5099 170.724 51.9194C171.738 49.2726 172.245 46.1471 172.245 42.543C172.245 38.8262 171.766 35.6444 170.809 32.9976C169.908 30.3507 168.528 28.3234 166.669 26.9155C164.867 25.5076 162.474 24.8037 159.489 24.8037H145.551V126.002H118.689V3.00977ZM173.934 126.002L151.718 71.3481L179.932 71.2637L202.655 124.735V126.002H173.934Z"/>
<path d="M303.515 55.1294V74.7271C303.515 83.4559 302.445 91.1429 300.305 97.7881C298.165 104.377 295.096 109.896 291.098 114.345C287.156 118.794 282.425 122.144 276.906 124.397C271.444 126.593 265.39 127.691 258.745 127.691C252.043 127.691 245.933 126.593 240.414 124.397C234.895 122.144 230.137 118.794 226.138 114.345C222.14 109.896 219.042 104.377 216.846 97.7881C214.706 91.1429 213.636 83.4559 213.636 74.7271V55.1294C213.636 46.2879 214.706 38.5164 216.846 31.8149C219.042 25.0571 222.112 19.4538 226.054 15.0049C230.052 10.4997 234.783 7.09261 240.245 4.78369C245.764 2.47477 251.874 1.32031 258.576 1.32031C265.277 1.32031 271.359 2.47477 276.822 4.78369C282.341 7.09261 287.071 10.4997 291.013 15.0049C295.012 19.4538 298.081 25.0571 300.221 31.8149C302.417 38.5164 303.515 46.2879 303.515 55.1294ZM276.568 74.7271V54.9604C276.568 49.2726 276.174 44.4295 275.386 40.4312C274.654 36.4328 273.527 33.1665 272.007 30.6323C270.486 28.0981 268.6 26.2397 266.347 25.0571C264.151 23.8745 261.56 23.2832 258.576 23.2832C255.535 23.2832 252.888 23.8745 250.635 25.0571C248.383 26.2397 246.496 28.0981 244.976 30.6323C243.511 33.1665 242.413 36.4328 241.681 40.4312C241.005 44.4295 240.667 49.2726 240.667 54.9604V74.7271C240.667 80.2459 241.034 84.9764 241.766 88.9185C242.498 92.8605 243.624 96.0705 245.145 98.5483C246.665 101.026 248.552 102.856 250.804 104.039C253.057 105.222 255.704 105.813 258.745 105.813C261.673 105.813 264.235 105.222 266.432 104.039C268.684 102.856 270.543 101.026 272.007 98.5483C273.527 96.0705 274.654 92.8605 275.386 88.9185C276.174 84.9764 276.568 80.2459 276.568 74.7271Z"/>
<path d="M362.477 83.5122H337.558V61.7183H362.393C365.659 61.7183 368.278 60.9862 370.249 59.522C372.22 58.0015 373.656 55.946 374.557 53.3555C375.458 50.7087 375.908 47.724 375.908 44.4014C375.908 40.9098 375.458 37.6717 374.557 34.687C373.656 31.7023 372.22 29.3089 370.249 27.5068C368.278 25.7048 365.687 24.8037 362.477 24.8037H346.765V126.002H319.987V3.00977H362.477C370.868 3.00977 378.076 4.78369 384.102 8.33154C390.184 11.8794 394.858 16.7507 398.125 22.9453C401.391 29.14 403.024 36.2357 403.024 44.2324C403.024 52.1165 401.391 59.0151 398.125 64.9282C394.858 70.785 390.184 75.3465 384.102 78.6128C378.076 81.8791 370.868 83.5122 362.477 83.5122Z"/>
<path d="M504.391 26.9155L479.725 126.002H451.089L489.355 3.00977H507.179L504.391 26.9155ZM523.82 126.002L499.069 26.9155L495.859 3.00977H514.021L552.456 126.002H523.82ZM524.749 80.1333V101.843H470.264V80.1333H524.749Z"/>
</mask>
<path d="M122.754 312.553L116.455 348.002H30.3223L36.4746 312.553H122.754ZM80.2734 134.721L43.3594 348.002H1.46484L38.2324 134.721H80.2734Z" fill="black"/>
<path d="M221.338 134.721L184.277 348.002H142.529L179.59 134.721H221.338Z" fill="black"/>
<path d="M401.367 134.721L364.307 348.002H323.438L285.938 205.912L261.328 348.002H219.434L256.201 134.721H297.217L335.01 276.957L359.619 134.721H401.367Z" fill="black"/>
<path d="M522.656 312.553L516.357 348.002H426.416L432.422 312.553H522.656ZM476.367 134.721L439.453 348.002H397.559L434.326 134.721H476.367ZM526.465 221.146L520.459 255.57H442.383L448.242 221.146H526.465ZM553.125 134.721L546.826 170.316H457.031L463.33 134.721H553.125Z" fill="black"/>
<path d="M54.4897 126.002H32.3579L32.5269 104.292H54.4897C59.6144 104.292 63.6691 103.307 66.6538 101.336C69.6948 99.3649 71.863 96.1549 73.1582 91.7061C74.5098 87.2572 75.1855 81.3441 75.1855 73.9668V54.9604C75.1855 49.4416 74.8195 44.7674 74.0874 40.938C73.3553 37.0522 72.1727 33.9549 70.5396 31.646C68.9627 29.2808 66.8509 27.5632 64.2041 26.4932C61.5573 25.3669 58.291 24.8037 54.4053 24.8037H31.9355V3.00977H54.4053C61.5573 3.00977 68.0617 4.19238 73.9185 6.55762C79.7752 8.86654 84.8154 12.2736 89.0391 16.7788C93.2627 21.2277 96.5008 26.6621 98.7534 33.082C101.006 39.502 102.132 46.8511 102.132 55.1294V73.9668C102.132 82.1888 101.006 89.5379 98.7534 96.0142C96.5008 102.434 93.2627 107.868 89.0391 112.317C84.8154 116.766 79.7752 120.173 73.9185 122.539C68.118 124.847 61.6418 126.002 54.4897 126.002ZM47.9854 3.00977V126.002H21.123V3.00977H47.9854Z" fill="black"/>
<path d="M118.689 3.00977H159.489C167.711 3.00977 174.779 4.41764 180.692 7.2334C186.605 10.0492 191.138 14.2165 194.292 19.7354C197.502 25.2542 199.107 32.0684 199.107 40.1777C199.107 47.0482 198.206 52.8486 196.404 57.5791C194.602 62.2533 192.068 66.139 188.801 69.2363C185.535 72.3337 181.677 74.8397 177.229 76.7544L168.697 81.7383H136.175L136.09 60.0288H158.813C161.854 60.0288 164.361 59.3249 166.332 57.917C168.303 56.5091 169.767 54.5099 170.724 51.9194C171.738 49.2726 172.245 46.1471 172.245 42.543C172.245 38.8262 171.766 35.6444 170.809 32.9976C169.908 30.3507 168.528 28.3234 166.669 26.9155C164.867 25.5076 162.474 24.8037 159.489 24.8037H145.551V126.002H118.689V3.00977ZM173.934 126.002L151.718 71.3481L179.932 71.2637L202.655 124.735V126.002H173.934Z" fill="black"/>
<path d="M303.515 55.1294V74.7271C303.515 83.4559 302.445 91.1429 300.305 97.7881C298.165 104.377 295.096 109.896 291.098 114.345C287.156 118.794 282.425 122.144 276.906 124.397C271.444 126.593 265.39 127.691 258.745 127.691C252.043 127.691 245.933 126.593 240.414 124.397C234.895 122.144 230.137 118.794 226.138 114.345C222.14 109.896 219.042 104.377 216.846 97.7881C214.706 91.1429 213.636 83.4559 213.636 74.7271V55.1294C213.636 46.2879 214.706 38.5164 216.846 31.8149C219.042 25.0571 222.112 19.4538 226.054 15.0049C230.052 10.4997 234.783 7.09261 240.245 4.78369C245.764 2.47477 251.874 1.32031 258.576 1.32031C265.277 1.32031 271.359 2.47477 276.822 4.78369C282.341 7.09261 287.071 10.4997 291.013 15.0049C295.012 19.4538 298.081 25.0571 300.221 31.8149C302.417 38.5164 303.515 46.2879 303.515 55.1294ZM276.568 74.7271V54.9604C276.568 49.2726 276.174 44.4295 275.386 40.4312C274.654 36.4328 273.527 33.1665 272.007 30.6323C270.486 28.0981 268.6 26.2397 266.347 25.0571C264.151 23.8745 261.56 23.2832 258.576 23.2832C255.535 23.2832 252.888 23.8745 250.635 25.0571C248.383 26.2397 246.496 28.0981 244.976 30.6323C243.511 33.1665 242.413 36.4328 241.681 40.4312C241.005 44.4295 240.667 49.2726 240.667 54.9604V74.7271C240.667 80.2459 241.034 84.9764 241.766 88.9185C242.498 92.8605 243.624 96.0705 245.145 98.5483C246.665 101.026 248.552 102.856 250.804 104.039C253.057 105.222 255.704 105.813 258.745 105.813C261.673 105.813 264.235 105.222 266.432 104.039C268.684 102.856 270.543 101.026 272.007 98.5483C273.527 96.0705 274.654 92.8605 275.386 88.9185C276.174 84.9764 276.568 80.2459 276.568 74.7271Z" fill="black"/>
<path d="M362.477 83.5122H337.558V61.7183H362.393C365.659 61.7183 368.278 60.9862 370.249 59.522C372.22 58.0015 373.656 55.946 374.557 53.3555C375.458 50.7087 375.908 47.724 375.908 44.4014C375.908 40.9098 375.458 37.6717 374.557 34.687C373.656 31.7023 372.22 29.3089 370.249 27.5068C368.278 25.7048 365.687 24.8037 362.477 24.8037H346.765V126.002H319.987V3.00977H362.477C370.868 3.00977 378.076 4.78369 384.102 8.33154C390.184 11.8794 394.858 16.7507 398.125 22.9453C401.391 29.14 403.024 36.2357 403.024 44.2324C403.024 52.1165 401.391 59.0151 398.125 64.9282C394.858 70.785 390.184 75.3465 384.102 78.6128C378.076 81.8791 370.868 83.5122 362.477 83.5122Z" fill="black"/>
<path d="M504.391 26.9155L479.725 126.002H451.089L489.355 3.00977H507.179L504.391 26.9155ZM523.82 126.002L499.069 26.9155L495.859 3.00977H514.021L552.456 126.002H523.82ZM524.749 80.1333V101.843H470.264V80.1333H524.749Z" fill="black"/>
<path d="M122.754 312.553L116.455 348.002H30.3223L36.4746 312.553H122.754ZM80.2734 134.721L43.3594 348.002H1.46484L38.2324 134.721H80.2734Z" stroke="black" stroke-width="2" mask="url(#path-1-outside-1_74_96)"/>
<path d="M221.338 134.721L184.277 348.002H142.529L179.59 134.721H221.338Z" stroke="black" stroke-width="2" mask="url(#path-1-outside-1_74_96)"/>
<path d="M401.367 134.721L364.307 348.002H323.438L285.938 205.912L261.328 348.002H219.434L256.201 134.721H297.217L335.01 276.957L359.619 134.721H401.367Z" stroke="black" stroke-width="2" mask="url(#path-1-outside-1_74_96)"/>
<path d="M522.656 312.553L516.357 348.002H426.416L432.422 312.553H522.656ZM476.367 134.721L439.453 348.002H397.559L434.326 134.721H476.367ZM526.465 221.146L520.459 255.57H442.383L448.242 221.146H526.465ZM553.125 134.721L546.826 170.316H457.031L463.33 134.721H553.125Z" stroke="black" stroke-width="2" mask="url(#path-1-outside-1_74_96)"/>
<path d="M54.4897 126.002H32.3579L32.5269 104.292H54.4897C59.6144 104.292 63.6691 103.307 66.6538 101.336C69.6948 99.3649 71.863 96.1549 73.1582 91.7061C74.5098 87.2572 75.1855 81.3441 75.1855 73.9668V54.9604C75.1855 49.4416 74.8195 44.7674 74.0874 40.938C73.3553 37.0522 72.1727 33.9549 70.5396 31.646C68.9627 29.2808 66.8509 27.5632 64.2041 26.4932C61.5573 25.3669 58.291 24.8037 54.4053 24.8037H31.9355V3.00977H54.4053C61.5573 3.00977 68.0617 4.19238 73.9185 6.55762C79.7752 8.86654 84.8154 12.2736 89.0391 16.7788C93.2627 21.2277 96.5008 26.6621 98.7534 33.082C101.006 39.502 102.132 46.8511 102.132 55.1294V73.9668C102.132 82.1888 101.006 89.5379 98.7534 96.0142C96.5008 102.434 93.2627 107.868 89.0391 112.317C84.8154 116.766 79.7752 120.173 73.9185 122.539C68.118 124.847 61.6418 126.002 54.4897 126.002ZM47.9854 3.00977V126.002H21.123V3.00977H47.9854Z" stroke="black" stroke-width="2" mask="url(#path-1-outside-1_74_96)"/>
<path d="M118.689 3.00977H159.489C167.711 3.00977 174.779 4.41764 180.692 7.2334C186.605 10.0492 191.138 14.2165 194.292 19.7354C197.502 25.2542 199.107 32.0684 199.107 40.1777C199.107 47.0482 198.206 52.8486 196.404 57.5791C194.602 62.2533 192.068 66.139 188.801 69.2363C185.535 72.3337 181.677 74.8397 177.229 76.7544L168.697 81.7383H136.175L136.09 60.0288H158.813C161.854 60.0288 164.361 59.3249 166.332 57.917C168.303 56.5091 169.767 54.5099 170.724 51.9194C171.738 49.2726 172.245 46.1471 172.245 42.543C172.245 38.8262 171.766 35.6444 170.809 32.9976C169.908 30.3507 168.528 28.3234 166.669 26.9155C164.867 25.5076 162.474 24.8037 159.489 24.8037H145.551V126.002H118.689V3.00977ZM173.934 126.002L151.718 71.3481L179.932 71.2637L202.655 124.735V126.002H173.934Z" stroke="black" stroke-width="2" mask="url(#path-1-outside-1_74_96)"/>
<path d="M303.515 55.1294V74.7271C303.515 83.4559 302.445 91.1429 300.305 97.7881C298.165 104.377 295.096 109.896 291.098 114.345C287.156 118.794 282.425 122.144 276.906 124.397C271.444 126.593 265.39 127.691 258.745 127.691C252.043 127.691 245.933 126.593 240.414 124.397C234.895 122.144 230.137 118.794 226.138 114.345C222.14 109.896 219.042 104.377 216.846 97.7881C214.706 91.1429 213.636 83.4559 213.636 74.7271V55.1294C213.636 46.2879 214.706 38.5164 216.846 31.8149C219.042 25.0571 222.112 19.4538 226.054 15.0049C230.052 10.4997 234.783 7.09261 240.245 4.78369C245.764 2.47477 251.874 1.32031 258.576 1.32031C265.277 1.32031 271.359 2.47477 276.822 4.78369C282.341 7.09261 287.071 10.4997 291.013 15.0049C295.012 19.4538 298.081 25.0571 300.221 31.8149C302.417 38.5164 303.515 46.2879 303.515 55.1294ZM276.568 74.7271V54.9604C276.568 49.2726 276.174 44.4295 275.386 40.4312C274.654 36.4328 273.527 33.1665 272.007 30.6323C270.486 28.0981 268.6 26.2397 266.347 25.0571C264.151 23.8745 261.56 23.2832 258.576 23.2832C255.535 23.2832 252.888 23.8745 250.635 25.0571C248.383 26.2397 246.496 28.0981 244.976 30.6323C243.511 33.1665 242.413 36.4328 241.681 40.4312C241.005 44.4295 240.667 49.2726 240.667 54.9604V74.7271C240.667 80.2459 241.034 84.9764 241.766 88.9185C242.498 92.8605 243.624 96.0705 245.145 98.5483C246.665 101.026 248.552 102.856 250.804 104.039C253.057 105.222 255.704 105.813 258.745 105.813C261.673 105.813 264.235 105.222 266.432 104.039C268.684 102.856 270.543 101.026 272.007 98.5483C273.527 96.0705 274.654 92.8605 275.386 88.9185C276.174 84.9764 276.568 80.2459 276.568 74.7271Z" stroke="black" stroke-width="2" mask="url(#path-1-outside-1_74_96)"/>
<path d="M362.477 83.5122H337.558V61.7183H362.393C365.659 61.7183 368.278 60.9862 370.249 59.522C372.22 58.0015 373.656 55.946 374.557 53.3555C375.458 50.7087 375.908 47.724 375.908 44.4014C375.908 40.9098 375.458 37.6717 374.557 34.687C373.656 31.7023 372.22 29.3089 370.249 27.5068C368.278 25.7048 365.687 24.8037 362.477 24.8037H346.765V126.002H319.987V3.00977H362.477C370.868 3.00977 378.076 4.78369 384.102 8.33154C390.184 11.8794 394.858 16.7507 398.125 22.9453C401.391 29.14 403.024 36.2357 403.024 44.2324C403.024 52.1165 401.391 59.0151 398.125 64.9282C394.858 70.785 390.184 75.3465 384.102 78.6128C378.076 81.8791 370.868 83.5122 362.477 83.5122Z" stroke="black" stroke-width="2" mask="url(#path-1-outside-1_74_96)"/>
<path d="M504.391 26.9155L479.725 126.002H451.089L489.355 3.00977H507.179L504.391 26.9155ZM523.82 126.002L499.069 26.9155L495.859 3.00977H514.021L552.456 126.002H523.82ZM524.749 80.1333V101.843H470.264V80.1333H524.749Z" stroke="black" stroke-width="2" mask="url(#path-1-outside-1_74_96)"/>
</svg>
